<svg xmlns="http://www.w3.org/2000/svg" viewBox="0 0 160 200" preserveAspectRatio="none"><defs><linearGradient id="base" x2="1" y2="1"><stop stop-color="#682876"/><stop offset=".5" stop-color="#190d29"/><stop offset="1" stop-color="#050b19"/></linearGradient><linearGradient id="gold" x2="1" y2="1"><stop stop-color="#fff3be"/><stop offset=".35" stop-color="#bb893d"/><stop offset=".65" stop-color="#ffe0a0"/><stop offset="1" stop-color="#86602f"/></linearGradient><pattern id="p" width="16" height="16" patternUnits="userSpaceOnUse"><path d="M8 0 16 8 8 16 0 8Z" fill="none" stroke="#dd8bff" stroke-opacity=".12" stroke-width=".8"/></pattern></defs><rect width="160" height="200" rx="12" fill="url(#base)"/><rect x="6" y="6" width="148" height="188" rx="9" fill="url(#p)" stroke="url(#gold)" stroke-width="2"/><rect x="11" y="11" width="138" height="178" rx="6" fill="none" stroke="#dd8bff" stroke-opacity=".35"/><path d="M18 42V18h24M118 18h24v24M18 158v24h24M118 182h24v-24" fill="none" stroke="url(#gold)" stroke-width="2"/><path d="m80 39 48 61-48 61-48-61Z" fill="#190d29" stroke="url(#gold)" stroke-width="1.5"/><path d="m80 49 39 51-39 51-39-51Z" fill="none" stroke="#dd8bff" stroke-opacity=".4"/><path d="m80 24 4 7-4 7-4-7Zm0 138 4 7-4 7-4-7Z" fill="#f4d99b"/><path d="M43 81h74M43 119h74" stroke="url(#gold)" stroke-opacity=".7"/></svg>